<svg version="1.2" xmlns="http://www.w3.org/2000/svg" viewBox="0 0 2814 1013" width="2814" height="1013">
	<title>inf-ufg-svg</title>
	<style>
		.s0 { fill: #007dc4 } 
		.s1 { fill: #231f20 } 
	</style>
	<path class="s0" d="m1530 1c2.5 1.3 2.5 1.3 5.3 2.9q1.5 0.8 3.1 1.8 1.6 0.9 3.3 1.9 1.7 1 3.5 2.1 3.6 2.1 7.2 4.2 8.2 4.8 16.5 9.5c1.6 1 1.6 1 3.2 1.9q12.9 7.4 25.8 14.8 13.6 7.7 27 15.6 11.5 6.7 23.1 13.3 14.6 8.3 29 16.8 11.7 6.8 23.4 13.5 1.7 1 3.4 2 1.6 0.9 3.2 1.8 1.3 0.8 2.8 1.6 2.1 1.2 4.2 2.3c0 72.3 0 144.5 0 219-8.3 4.6-16.5 9.2-25 14-6.2 3.7-6.2 3.7-12.5 7.3-5.6 3.4-11.3 6.6-16.9 9.9q-1.7 0.9-3.4 1.9-3.4 2-6.8 3.9-8.2 4.8-16.4 9.5-3.2 1.9-6.5 3.7-1.6 1-3.3 1.9-17.8 10.3-35.7 20.6-1.6 1-3.3 1.9-3.2 1.9-6.4 3.8-10.1 5.8-20.2 11.6-3.3 1.9-6.6 3.8c-4.6 2.6-9.1 5.2-13.6 8q-0.9 0.5-1.9 1.1-2.5 1.5-4.9 3c-3.2 1.3-4.3 1-7.6 0.1q-2.9-1.5-5.8-3.1-1.6-1-3.4-2-1.8-1-3.6-2.1-1.9-1.1-3.8-2.2-5.7-3.3-11.4-6.6-1.6-0.9-3.2-1.9-5.9-3.4-11.7-6.8-11.5-6.7-23.1-13.3-14.5-8.3-28.9-16.7-11.5-6.7-23.1-13.3-13-7.4-26-15c-13.3-7.7-26.6-15.4-40-23 0-72.3 0-144.5 0-219 8.2-4.6 16.5-9.2 25-14 6.2-3.7 6.2-3.7 12.5-7.3 5.6-3.4 11.3-6.6 16.9-9.9q1.7-0.9 3.4-1.9 3.4-2 6.8-3.9 8.2-4.8 16.4-9.5 3.2-1.9 6.5-3.8 1.6-0.9 3.3-1.8 17.8-10.3 35.7-20.7c1.6-0.9 1.6-0.9 3.3-1.8q3.2-1.9 6.4-3.8 10.1-5.8 20.2-11.6 3.3-1.9 6.6-3.8c4.6-2.6 9.1-5.2 13.6-8q0.9-0.5 1.9-1.1 2.5-1.5 4.9-3c3.2-1.3 4.3-1 7.6-0.1z"/>
	<path class="s0" d="m1533 652q2.9 1.4 5.7 3.1c1.7 0.9 1.7 0.9 3.4 1.9q1.8 1.1 3.6 2.1 1.9 1.1 3.8 2.2 3.8 2.2 7.7 4.5 5.3 3.1 10.6 6.1 17.1 9.9 34.2 19.8 10.9 6.4 21.9 12.7 1.6 1 3.2 1.9 8.3 4.8 16.5 9.5c10.7 6.2 21.4 12.3 32 18.6q1.4 0.8 2.8 1.7c1.3 0.7 1.3 0.7 2.6 1.5q1.1 0.6 2.3 1.3c1.7 1.1 1.7 1.1 2.7 2.1 0.1 2.4 0.1 4.7 0.1 7 0 1.1 0 1.1 0 2.3q0 3.8 0 7.5 0 2.7 0 5.4 0 7.3 0 14.7 0 7.6 0 15.2 0 14.5 0 29 0 16.5 0 33-0.1 34-0.1 67.9-1.2 0.7-2.4 1.4-4.4 2.5-8.9 5-1.9 1.1-3.8 2.2-12.6 7.2-25 14.5-1.6 0.9-3.1 1.8-1.4 0.8-2.8 1.6c-9.6 5.6-19.1 11.1-28.7 16.6q-8.2 4.7-16.3 9.4-3.2 1.9-6.5 3.7-1.6 1-3.3 1.9-4.8 2.8-9.7 5.6-1.6 1-3.3 1.9-3.2 1.9-6.4 3.7c-5.1 2.9-10.1 5.9-15.1 9.1q-3.4 2.2-7 4.3-2.4 1.6-4.8 3.3c-3 1.8-5.5 3.2-8.9 4-4.3-1.1-7.4-3.4-11-6q-2.6-1.5-5.3-2.9-2.7-1.6-5.4-3.1-1.5-0.8-3-1.7c-8-4.5-16-9.2-24-13.9q-11.6-6.7-23.3-13.4-14.6-8.3-29.1-16.8-11-6.4-22.1-12.8-1.4-0.9-2.9-1.7-10.4-6-20.8-11.9-1.5-0.9-3-1.7-3.5-2.1-7.1-4.1-0.5-35.4-0.7-70.8-0.1-16.4-0.3-32.8-0.2-14.4-0.2-28.7 0-7.6-0.2-15.1-0.1-7.2-0.1-14.3 0-2.6 0-5.3c-0.2-5.3-0.1-9.9 1.5-15 3.9-3.9 7.9-5.8 13-8q3.3-1.8 6.5-3.8 3.3-1.9 6.7-3.8 3.7-2.1 7.4-4.2c0.9-0.5 0.9-0.5 1.9-1 15.5-8.9 31-17.9 46.5-26.9 10.5-6.2 21.1-12.3 31.7-18.4q6.9-4 13.8-7.9 3.3-1.9 6.5-3.8 1.5-0.9 3.1-1.8 1.4-0.8 2.9-1.7 3.2-1.8 6.2-3.7 1.6-1 3.2-2 1.5-0.9 2.9-1.8c3.2-1.4 4.4-1.4 7.7-0.2z"/>
	<path class="s0" d="m1003 382c2.5 1.3 4.9 2.6 7.3 4.1q2.2 1.4 4.5 2.8 1.2 0.7 2.5 1.5c5 3 10.1 5.9 15.1 8.8q3.4 1.9 6.8 3.9 1.7 0.9 3.4 1.9 8.2 4.8 16.4 9.5 9.8 5.6 19.6 11.3 17.2 9.9 34.3 19.9 11.6 6.7 23.2 13.4c1.6 1 1.6 1 3.3 1.9q6.1 3.6 12.3 7.1 1.6 0.9 3.3 1.9 0.5 35.4 0.7 70.8 0.1 16.4 0.3 32.8 0.2 14.4 0.2 28.7 0 7.6 0.2 15.1 0.1 7.2 0.1 14.3 0 2.6 0 5.3c0.2 5.3 0.1 9.9-1.5 15-3.9 3.9-7.9 5.8-13 8q-3.3 1.8-6.5 3.8-3.3 1.9-6.7 3.8-3.7 2.1-7.4 4.2-0.9 0.5-1.9 1c-15.5 8.9-31 17.9-46.5 26.9-10.5 6.2-21.1 12.3-31.7 18.4q-6.9 4-13.8 7.9-3.3 1.9-6.5 3.8-1.5 0.9-3.1 1.8c-1.4 0.8-1.4 0.8-2.9 1.7q-3.2 1.8-6.3 3.7-1.6 1-3.2 2-1.4 0.9-2.9 1.8c-2.6 1.2-2.6 1.2-4.6 1.1-2.4-1.1-4.7-2.3-7-3.6q-1.5-0.8-3-1.7c-1.6-0.9-1.6-0.9-3.2-1.8q-1.7-0.9-3.4-1.9c-9.5-5.4-18.9-10.8-28.3-16.3q-9.5-5.6-19-11-1.6-1-3.2-1.9-5-2.9-9.9-5.7c-13.7-7.9-27.3-15.7-40.9-23.7q-8.1-4.7-16.3-9.4c-0.9-0.6-0.9-0.6-1.8-1.1q-4.3-2.5-8.7-5-1.6-0.9-3.2-1.8-1.3-0.8-2.8-1.6-2.7-1.6-5.3-3.4c-0.3-2.4-0.4-4.6-0.4-7.1q0-1.1 0-2.2-0.1-3.7-0.1-7.4 0-2.7 0-5.4-0.1-7.2-0.1-14.5 0-4.5 0-9-0.1-14.1-0.1-28.3 0-16.3-0.2-32.7-0.1-12.6-0.1-25.2 0-7.6 0-15.1-0.1-7.1-0.1-14.2 0-2.6 0-5.2c-0.2-13.1-0.2-13.1 3.1-17 2.3-1.6 4.4-2.7 7-3.7q1.4-0.8 2.8-1.7c1.1-0.6 1.1-0.6 2.3-1.2q1.3-0.8 2.6-1.5 1.4-0.8 2.9-1.6 12.2-6.8 24.2-13.9 17.4-10.2 34.9-20.2 8.2-4.7 16.3-9.4 3.2-1.9 6.5-3.7 8.2-4.8 16.5-9.6 3.3-1.9 6.6-3.8 7.8-4.4 15.5-9c1.4-0.9 1.4-0.9 2.9-1.8q2.7-1.6 5.3-3.2c7.5-4.4 7.5-4.4 12.7-2.4z"/>
	<path class="s0" d="m1658 400c2.5 1.2 2.5 1.2 5.1 2.7q1.5 0.8 3 1.7c1.6 0.9 1.6 0.9 3.2 1.8q1.7 0.9 3.4 1.9 12.6 7.2 25.1 14.5 11.5 6.7 23.1 13.3 13.8 7.9 27.7 15.9 1.4 0.9 2.9 1.7 2.9 1.7 5.8 3.5c2.7 1.6 5.4 2.6 8.4 3.6 5.7 2.2 10.5 4.6 14.3 9.4 3.4 9.5 2.6 20.4 2.4 30.3-0.1 4.1-0.1 8.1-0.1 12.1q0 10.2-0.2 20.4-0.1 11.7-0.1 23.4 0.1 11.3 0 22.7-0.1 4.8 0 9.6 0 5.6-0.2 11.3 0 3 0 6.1c-0.1 3.8-0.4 6.6-1.8 10.1-4 3.6-8.1 5.7-13 8q-2.7 1.5-5.5 3.1-2.6 1.5-5.3 3-12 6.8-23.9 13.7-13 7.7-26.2 15.1-14.1 8.1-28.2 16.2c-1.6 0.9-1.6 0.9-3.2 1.9-1.5 0.8-1.5 0.8-3 1.7q-1.4 0.8-2.9 1.6-2.8 1.7-5.5 3.5c-6.5 4.3-6.5 4.3-10.5 3.8q-1.4-0.8-2.8-1.6-1.7-0.9-3.4-1.9-1.9-1.1-3.9-2.3-2.2-1.4-4.5-2.7-1.2-0.7-2.5-1.5c-5-3-10-5.8-15-8.7-1.7-1-1.7-1-3.3-1.9q-13.2-7.6-26.3-15.1-13.5-7.7-26.9-15.5-11.5-6.7-22.9-13.3-1.8-1.1-3.6-2.1-4.4-2.5-8.7-5-0.3-28.2-0.5-56.4 0-13.1-0.2-26.2-0.1-11.4-0.1-22.8-0.1-6.1-0.2-12.1 0-5.7 0-11.4 0-2.1-0.1-4.2c-0.2-10.5-0.2-10.5 3.1-14 2.3-1.6 4.5-2.8 7-3.9q1.4-0.9 2.9-1.7 1.3-0.7 2.6-1.5 1.5-0.8 3-1.6 1.5-0.8 3.1-1.7c8.4-4.7 16.9-9.5 25.2-14.4q13-7.6 26.1-15 14.1-8.1 28.1-16.2 1.5-0.9 3.1-1.8c1.5-0.8 1.5-0.8 3-1.7q1.5-0.8 2.9-1.7 3.2-1.8 6.2-3.7 1.6-1 3.2-2 1.5-0.9 2.9-1.8c3.2-1.4 4.4-1.3 7.7-0.2z"/>
	<path class="s0" d="m1156.5 146.6q1.2 0.7 2.5 1.4 1.3 0.7 2.7 1.5 1.5 0.8 3 1.7 1.7 0.9 3.4 1.9 1.8 1 3.6 2.1 1.9 1.1 3.8 2.2 4.8 2.7 9.6 5.5 4.3 2.5 8.6 5 8.1 4.6 16.1 9.2 6.5 3.8 12.9 7.5 3.3 1.9 6.5 3.8 8.4 4.8 16.7 9.6c1.7 0.9 1.7 0.9 3.4 1.9q3.2 1.9 6.5 3.7 2.9 1.7 5.8 3.5c2.6 1.5 4.5 2.3 7.2 3.1 4.8 1.6 8.4 3.5 11.2 7.8 2.7 9.7 1.8 20.4 1.5 30.4-0.1 4.1-0.1 8.1-0.1 12.2q-0.1 11.5-0.3 23.1c-0.2 8.7-0.3 17.5-0.3 26.3q-0.3 27-0.8 54-1 0.6-2 1.1-4.5 2.6-9.1 5.2-1.5 0.8-3.1 1.7-10.4 5.9-20.6 11.9-12.5 7.3-25.1 14.5-1.6 1-3.2 1.9-6.6 3.8-13.2 7.6-3.3 1.9-6.6 3.8-3.2 1.8-6.4 3.7-8.3 4.7-16.5 9.7c-1.6 1-1.6 1-3.3 2q-3.1 1.9-6.2 3.8-1.3 0.8-2.8 1.7-1.2 0.7-2.4 1.5c-3.3 1.2-5.1 0.8-8.5-0.1-2.7-1.3-2.7-1.3-5.4-2.9q-1.5-0.8-3-1.8-1.7-0.9-3.4-1.9-1.7-1-3.4-2.1-3.6-2.1-7.2-4.2c-5.6-3.3-11.1-6.5-16.7-9.7q-12.4-7.1-24.8-14.3-14.9-8.7-29.9-17.2-3.2-1.9-6.4-3.8c-2.6-1.6-5.2-2.6-8.1-3.5-5.2-1.9-9.4-4.1-12.7-8.6-3.1-9.5-2.4-20.3-2.2-30.2 0-4 0-8.1 0-12.1q0-10.2 0.1-20.3 0.1-11.8 0-23.5-0.1-11.3 0-22.6 0-4.8 0-9.6c-0.2-24.3-0.2-24.3 3.6-29.9 4-3.7 8.3-5.2 13.5-6.8q3.2-1.7 6.2-3.6 3.1-1.8 6.1-3.5 3.4-2 6.8-3.9c1.7-1 1.7-1 3.5-2q8.2-4.8 16.4-9.5 3.2-1.9 6.5-3.7 1.6-1 3.2-1.9c9.8-5.6 9.8-5.6 13.1-7.5q3.2-1.9 6.4-3.7 7.6-4.4 15.2-8.8 3.6-2.1 7.2-4.2 2.5-1.4 5-2.9c1.6-0.9 1.6-0.9 3.1-1.8q1.4-0.7 2.8-1.5c2.5-1.5 2.5-1.5 5-3.3 2.5-1.2 2.5-1.2 5-0.6z"/>
	<path class="s1" d="m2799 216c-0.7 6.8-2.2 13.3-3.8 19.9-0.5 1.7-0.5 1.7-0.9 3.4q-0.9 3.5-1.8 7-1.3 5.5-2.7 10.9-0.8 3.4-1.7 6.8-0.4 1.6-0.8 3.3-0.4 1.5-0.8 3c-0.3 1.4-0.3 1.4-0.7 2.7q-0.4 1-0.8 2c-3.8 1.3-4.5 0.5-8-1.1-29.5-12.7-66.8-15-98-7.9q-1.1 0.2-2.2 0.5c-15.1 3.5-29.1 10.3-40.8 20.5q-1.4 1.2-2.9 2.3c-16.9 14.1-25.6 38.5-28.1 59.7-0.3 5.3-0.4 10.7-0.4 16q0 1.1 0 2.2c0.1 12 0.9 23.3 4.4 34.8q0.3 1 0.6 2.1c7 22.4 21.5 41.8 42.4 52.9 25.4 12.7 52.3 14 80 10 2.3-0.3 4.6-0.7 7-1 0-22.1 0-44.2 0-67-16.2 0-32.3 0-49 0 0-18.8 0-37.6 0-57 39.6 0 79.2 0 120 0 0 55.8 0 111.5 0 169-7.8 3.1-14.8 5.5-22.8 7.4-1.8 0.5-1.8 0.5-3.7 0.9-8.8 2.2-17.6 4-26.6 5.5-1.6 0.3-1.6 0.3-3.3 0.6-17.3 2.9-34.3 4-51.7 3.9q-1.5 0-3 0c-47.3-0.2-94.1-10.4-128.9-44.3q-1.1-1-2.3-2.1c-27.6-25.7-39.7-66.7-41.6-103.4-1.1-47.7 11.3-92.6 44.8-127.7 16-16.4 35.8-28.6 57.1-36.8q1.1-0.4 2.3-0.9c47.8-17.9 122.3-23.4 168.7 1.9z"/>
	<path class="s1" d="m1888 204c24.1 0 48.2 0 73 0 0 5.9 0 11.8 0 17.8q0.1 29.3 0.2 58.6 0.1 17.7 0.1 35.4 0.1 15.5 0.1 31 0.1 8.1 0.1 16.3 0 7.7 0.1 15.5 0 2.8 0 5.6c-0.1 25.9 2.4 53.9 21 73.6 11.8 11.1 25 13.6 40.6 13.4 12.8-0.4 24.3-5.1 33.7-13.9 18.2-19.9 19.2-48.2 19.3-73.7q0-2.9 0-5.9 0.1-7.9 0.1-15.9 0-8.3 0.1-16.6 0.1-15.8 0.1-31.6 0.1-17.9 0.2-35.8 0.1-36.9 0.3-73.8c24.1 0 48.2 0 73 0q0.1 38.7 0.2 77.4 0 18 0 36 0.1 15.7 0.1 31.4 0 8.3 0 16.5c0.2 43.4-0.6 91.3-31.3 125.7q-1 1.2-2 2.5c-18.5 21.7-46.3 32.6-74 36.5q-1.9 0.3-3.9 0.6c-7.3 0.7-14.6 0.6-21.9 0.6-1.2 0.1-1.2 0.1-2.4 0.1-12.1-0.1-23.9-0.7-35.8-3.3-1-0.2-1-0.2-2-0.4-27.2-5.9-51.2-21.8-66.6-45.1-18.2-28.8-22.6-62.8-22.5-96.2q0-3 0-6 0-8 0-16.1 0-8.5 0-16.9 0-16 0-32 0-18.2 0-36.4 0.1-37.5 0.1-74.9z"/>
	<path class="s1" d="m2257 204c64.7 0 129.4 0 196 0 0 20.1 0 40.3 0 61-40.6 0-81.2 0-123 0 0 23.8 0 47.5 0 72 37.9 0 75.9 0 115 0 0 19.8 0 39.6 0 60-37.9 0-75.9 0-115 0 0 42.6 0 85.1 0 129-24.1 0-48.2 0-73 0 0-106.3 0-212.5 0-322z"/>
	<path class="s0" d="m1250.5 705.6c1.2 0.7 1.2 0.7 2.5 1.4q1.3 0.7 2.7 1.4 1.4 0.9 2.9 1.7c1.7 1 1.7 1 3.4 2q1.8 1 3.6 2 1.8 1.1 3.7 2.2 3.9 2.2 7.8 4.5 5.5 3.1 11.1 6.3c0.8 0.5 0.8 0.5 1.7 1q0.9 0.5 1.8 1 15.8 9 31.5 18.1 1.6 0.9 3.3 1.8 1.5 0.9 3 1.8 1.3 0.7 2.6 1.5 1.5 0.8 2.9 1.7 1 0.4 2 0.9c3.2 1.6 5.5 2.8 6.8 6.3 0.3 2.8 0.3 5.5 0.3 8.3q0 1.6 0 3.2 0 5.2 0 10.4 0 3.7 0 7.3 0.1 7.6 0 15.2 0 9.8 0.1 19.5 0 7.5 0 15 0 3.6 0 7.2 0 5.1-0.1 10.1 0.1 1.5 0.1 3c-0.2 6.6-0.2 6.6-3.2 9.5-2.3 1.6-4.5 2.9-7 4.1q-1.4 0.9-2.9 1.7c-1.3 0.7-1.3 0.7-2.6 1.5q-1.5 0.8-3 1.6-1.5 0.8-3.1 1.7c-8.4 4.7-16.9 9.5-25.2 14.4q-13.6 7.9-27.3 15.7-0.9 0.5-1.8 1.1-4.1 2.3-8.3 4.7-2.5 1.4-5 3c-4.3 2.7-4.3 2.7-6.6 2.4-2.8-1-5.3-2.4-7.9-3.8-1.7-1-1.7-1-3.4-1.9q-1.8-1-3.6-2-1.8-1.1-3.7-2.1c-7-4-14-8-21-12.1-7.8-4.7-15.8-9.2-23.8-13.7q-3.3-1.9-6.6-3.9c-3-1.7-6-3.1-9.2-4.5-13.3-6-13.3-6-16.1-12.3-1.7-7.4-1.2-15-0.9-22.5q0.1-3.7 0.1-7.3c0.1-6.4 0.3-12.7 0.5-19.1 0.2-6.4 0.3-12.9 0.4-19.4q0.4-19.1 1-38.2 1.2-0.7 2.4-1.3 4.4-2.6 8.8-5.1 2-1.1 3.9-2.2 12.9-7.4 25.9-14.9 15.6-9 31.3-18c1.6-0.9 1.6-0.9 3.3-1.8 1.6-0.9 1.6-0.9 3.2-1.9q3.3-1.9 6.5-3.9 1.6-1 3.2-2 1.4-0.9 2.8-1.8c2.7-1.1 2.7-1.1 5.2-0.5z"/>
	<path class="s1" d="m152 320c19.5 0 38.9 0 59 0 6.9 12.4 6.9 12.4 14 25q4 7 8 14 11.1 19.4 22 39 0.8 1.4 1.6 2.9c12.5 22.5 23.5 45.3 33.4 69.1q-0.1-1.2-0.2-2.3-0.4-5.6-0.7-11.1-0.2-1.8-0.3-3.7-0.4-6.4-0.8-12.9c-0.1-1.2-0.1-1.2-0.1-2.5-1.3-22.9-1-45.9-1-68.9q0-9.7 0.1-19.4 0-14.6 0-29.2c15.2 0 30.4 0 46 0 0 72.3 0 144.5 0 219-17.5 0-35 0-53 0-2-3.8-4.1-7.6-6.2-11.6q-7.8-14.5-16-28.9c-4.4-7.8-8.7-15.6-12.9-23.5q-4.7-8.8-9.7-17.4c-13.8-24.2-25.7-49.1-37.2-74.6 0 51.5 0 103 0 156-15.2 0-30.4 0-46 0 0-72.3 0-144.5 0-219z"/>
	<path class="s1" d="m375 320c44.2 0 88.4 0 134 0 0 13.9 0 27.7 0 42-27.4 0-54.8 0-83 0 0 15.8 0 31.7 0 48 25.7 0 51.5 0 78 0 0 13.9 0 27.7 0 42-25.7 0-51.5 0-78 0 0 28.7 0 57.4 0 87-16.8 0-33.7 0-51 0 0-72.3 0-144.5 0-219z"/>
	<path class="s1" d="m60 320c16.5 0 33 0 50 0 0 72.3 0 144.5 0 219-16.5 0-33 0-50 0 0-72.3 0-144.5 0-219z"/>
	<path fill-rule="evenodd" class="s1" d="m1979 634c6.6 0 13.2 0 20 0 3.5 4 5.1 6.1 7 10.7 1.6 3.7 3.6 7.2 5.6 10.7q2.4 4.2 4.7 8.5c0.6 1.2 0.6 1.2 1.3 2.4 1.8 3.5 3.6 7.1 5.4 10.7 0.3-14.2 0.7-28.4 1-43 5.3 0 10.6 0 16 0 0 24.1 0 48.2 0 73-6.3 0-12.5 0-19 0-6.8-11.8-13.4-23.7-19.8-35.8q-0.7-1.4-1.5-2.9c-3.6-6.9-3.6-6.9-4.7-10.3 0 16.2 0 32.3 0 49-5.3 0-10.6 0-16 0 0-24.1 0-48.2 0-73zm45 46c1 2 1 2 1 2z"/>
	<path fill-rule="evenodd" class="s1" d="m2727 642c8.3 8.7 10.4 18.5 10.3 30.2-0.9 11.4-5.1 19.7-13.1 27.6-10.9 7.6-22.6 8.5-35.6 8.4-1.7 0-1.7 0-3.5 0-8.8-0.1-8.8-0.1-13.1-1.2q0-14.1-0.1-28.1 0-6.5 0-13.1 0-6.3 0-12.5 0-2.5 0-4.9 0-3.3 0-6.7 0-1.9 0-3.8c0.1-2.9 0.1-2.9 1.1-3.9 17.7-2.5 39.3-3.8 54 8zm-38 5c0 15.5 0 31 0 47 12.2 0.6 12.2 0.6 22-4.8 6.7-7.3 7.6-13.7 7.3-23.3-0.5-6.5-2.4-10.5-7.2-14.8-7.9-5.4-11.4-4.1-22.1-4.1z"/>
	<path fill-rule="evenodd" class="s1" d="m2545 642c6.6 5.8 9.6 14.6 10.2 23.1 0.3 12-1.7 23-10.2 31.9-10.6 10.4-24.2 11.3-38.4 11.2-1.7 0-1.7 0-3.5 0-8.8-0.1-8.8-0.1-13.1-1.2q0-14.1-0.1-28.1 0-6.5 0-13.1 0-6.3 0-12.5 0-2.5 0-4.9 0-3.3 0-6.7 0-1.9 0-3.8c0.1-2.9 0.1-2.9 1.1-3.9 18.1-2.5 38.8-3.6 54 8zm-38 5c0 15.5 0 31 0 47 12.2 0.6 12.2 0.6 22-4.8 6.2-6.8 7.8-13.1 8-22.2-0.4-6.5-2.6-10.7-7.1-15.3-7.2-6.4-12.7-4.7-22.9-4.7z"/>
	<path fill-rule="evenodd" class="s1" d="m2016.6 740.7q2.9 0 5.9-0.1c10.9-0.1 22.1 1.3 30.8 8.6 7.2 7.7 10.1 16.7 10 27.1q0 1.1 0 2.3c-0.2 10.6-3.4 19.1-10.7 26.9-11.4 10.2-27.1 10.8-41.6 10.5-4.3-0.3-8.6-0.7-13-1 0-24.1 0-48.2 0-73 6.3-1 12.2-1.3 18.6-1.3zm-1.6 14.3q0 9.8-0.1 19.6 0 3.3 0 6.7 0 4.8 0 9.5 0 1.5 0 3.1 0 1.3 0 2.8 0 1.2 0 2.4c-0.1 1.9-0.1 1.9 1.1 2.9 7.9 0.6 15.5-0.5 21.9-5.5 5.1-5.3 7.1-12.3 7.5-19.6-0.8-7.6-2.9-13.5-8.4-18.9-6.7-4-14.5-5.5-22-3z"/>
	<path fill-rule="evenodd" class="s1" d="m2363.7 740.8q3-0.1 6.1-0.1c11.9-0.1 22.3 1.7 31.1 10.2 8 8.6 9.6 17.5 9.4 29.1-0.5 9.3-3.6 18.4-10.3 25-11.7 10.2-27.2 11.4-42 11-4.3-0.3-8.6-0.7-13-1 0-24.1 0-48.2 0-73 6.3-1.1 12.3-1.2 18.7-1.2zm-1.7 14.2c0 15.5 0 31 0 47 12.4 0.1 12.4 0.1 23-5.6 6.1-6.9 7.1-14.4 7-23.4-1-6.2-3.5-10.6-8-15-6.7-4-14.5-5.5-22-3z"/>
	<path fill-rule="evenodd" class="s1" d="m2638.4 744.4c7.9 5.7 12.9 12.9 15.1 22.4 2 13.4 0.6 25.4-6.8 36.9-5.3 7-13.2 10.9-21.7 12.3-11.1 0.8-21.4-0.4-30.4-7.5-8.2-8.1-11.4-18.4-11.9-29.6 0.2-10.1 2.9-20 9.3-27.9 12.2-11.8 31.3-15.6 46.4-6.6zm-32.8 16.4c-4.8 8-4.9 18.8-3.1 27.9 1.9 5.3 4.6 9.1 9.3 12.1 4.9 1.8 8.5 1.8 13.3 0.1 6.9-4.5 8.7-9.2 10.4-17 1.5-8.5-0.3-15.7-4.3-23.3-3.6-4.3-7.1-6.3-12.6-7.2-5.4 0.9-9.6 3-13 7.4z"/>
	<path fill-rule="evenodd" class="s1" d="m2150.3 740.8q1.9-0.1 3.9-0.1c9.6-0.1 18.1 0.6 25.4 7.5 3.8 4.8 4.7 10 4.3 16-1 7.4-5.2 11.4-10.9 15.8q1.1 1.1 2.2 2.3c6.3 7.6 10.8 22.9 10.8 32.7-5.9 0-11.9 0-18 0q-0.7-2.4-1.4-4.9-1-3.2-1.9-6.3c-0.5-1.6-0.5-1.6-0.9-3.3q-0.5-1.5-1-3.1-0.4-1.4-0.8-2.8c-1-3-1-3-4-6.6-3.3-0.7-6.6-1.3-10-2 0 9.6 0 19.1 0 29-5.9 0-11.9 0-18 0 0-24.1 0-48.2 0-73 6.9-1.1 13.4-1.2 20.3-1.2zm-2.3 13.2c0 6.3 0 12.5 0 19 9.4 0.6 9.4 0.6 17-4 1.6-3.1 1.3-5.6 1-9-2.1-3.4-3.2-4.7-7-6q-2.8-0.1-5.7-0.1-2.6 0.1-5.3 0.1z"/>
	<path fill-rule="evenodd" class="s1" d="m2328.5 637.8c5.4 4.8 7.2 9.7 7.6 16.7-0.3 6.2-2.9 11-7.1 15.5-2.3 1.8-2.3 1.8-4 3q1.2 1 2.3 2c3 3.4 4.2 6.4 5.3 10.7 0.3 1 0.3 1 0.6 2.1q0.7 2.1 1.2 4.2c0.8 2.7 1.6 5.2 2.4 7.8 0.8 2.7 1.2 4.4 1.2 7.2-5.9 0-11.9 0-18 0q-0.9-2.8-1.7-5.7-1.2-3.7-2.3-7.3-0.5-1.7-1.1-3.5-0.4-1.6-1-3.2-0.4-1.4-0.9-2.9c-0.9-2.7-0.9-2.7-4-4.4-3-0.3-5.9-0.7-9-1 0 9.2 0 18.5 0 28-5.9 0-11.9 0-18 0 0-23.8 0-47.5 0-72 12.1-6.1 35-3 46.5 2.8zm-28.5 9.2c0 6.3 0 12.5 0 19 9.6 0.2 9.6 0.2 16.9-4.7 1.6-3.4 1.6-5.6 1.1-9.3-2.1-3.2-3.7-4.7-7.5-5.6-3.9-0.4-6.7-0.7-10.5 0.6z"/>
	<path class="s1" d="m2572 743c-0.4 5.3-1.1 10-3 15-0.9-0.2-0.9-0.2-1.8-0.4-9.7-2.2-20-3.3-29.2 1.4-5.4 4.4-8.5 9.3-9.2 16.2-0.3 7.1 0.9 13.9 5.6 19.5 5.2 4.5 10.2 5.5 16.9 5.9 3.3 0.2 3.3 0.2 6.7 0.4 0-5 0-9.9 0-15-3.6 0-7.3 0-11 0 0-4.6 0-9.2 0-14 9.2 0 18.5 0 28 0 0 13.2 0 26.4 0 40-14.1 3.5-14.1 3.5-20.5 3.8q-1.1 0.1-2.2 0.1c-11.7 0.4-22.5-1.6-31.6-9.3-7.7-7.2-10.7-15-11.1-25.5-0.1-11.9 2.3-21 10.4-30.1 14.2-12.5 34.6-13.2 52-8z"/>
	<path fill-rule="evenodd" class="s1" d="m2212 741c7.6 0 15.2 0 23 0q4.3 13.6 8.6 27.2 2 6.3 4 12.6 1.9 6.1 3.9 12.2 0.7 2.3 1.4 4.6 1.1 3.3 2.1 6.5 0.6 1.9 1.2 3.8c0.8 3.1 0.8 3.1 0.8 7.1-5.9 0-11.9 0-18 0-2.8-6.5-4.4-12.2-6-19-6.6 0-13.2 0-20 0-1.3 5.5-1.3 5.5-2.5 11q-0.3 1-0.5 2.1-0.3 1-0.5 2.1c-0.5 1.8-0.5 1.8-1.5 3.8-5.9 0-11.9 0-18 0 1.6-7.7 3.8-15.1 6.1-22.6q0.6-1.9 1.2-3.9 1.2-4 2.4-8.1 1.6-5.1 3.2-10.3 1.5-5 3-9.9 0.6-1.9 1.2-3.8 0.5-1.7 1.1-3.4 0.4-1.5 0.9-3.1 1.4-4.5 2.9-8.9zm10 16q-1.5 5.7-3 11.3-0.4 1.6-0.9 3.3-0.4 1.5-0.8 3.1-0.4 1.4-0.7 2.8c-0.7 2.6-0.7 2.6-0.6 5.5 4.6 0 9.2 0 14 0-1.8-8.8-4.4-17.4-7-26q-0.5 0-1 0z"/>
	<path fill-rule="evenodd" class="s1" d="m2711 741c7.6 0 15.2 0 23 0q7.6 23.6 15 47.2 1 3.3 2 6.6 1.5 4.8 3 9.5 0.5 1.4 0.9 2.9c0.4 1.3 0.4 1.3 0.8 2.7q0.4 1.1 0.8 2.3c0.5 1.8 0.5 1.8 0.5 2.8-6.3 0-12.5 0-19 0-2.3-6-4.2-11.8-6-18-6.6-0.3-13.2-0.7-20-1q-0.4 2.5-0.8 5c-0.9 5.2-2.3 8.9-4.2 14-5.9 0-11.9 0-18 0 2.2-9 4.7-17.9 7.4-26.7q0.7-2.1 1.3-4.2 1.7-5.3 3.3-10.7 1.7-5.5 3.4-10.9 3.3-10.8 6.6-21.5zm11 17c-2.9 8.2-5 16.6-7 25 4.6 0 9.2 0 14 0-1.6-8.5-3.7-16.7-6-25q-0.5 0-1 0z"/>
	<path class="s1" d="m1887 634c5.6 0 11.2 0 17 0q0 2 0 4 0.1 7.3 0.3 14.7 0 3.1 0 6.3 0.1 4.6 0.2 9.2 0 1.4 0 2.8c0.2 7.3 0.9 14.8 5.6 20.6 4.1 2 7.5 2.3 11.9 1.4 4.3-3.1 5.7-6 7-11 0.3-3.7 0.4-7.4 0.4-11.1q0-1.6 0.1-3.2 0.1-5 0.1-10.1 0.1-3.4 0.1-6.8 0.2-8.4 0.3-16.8c5.6 0 11.2 0 17 0q0.1 10.6 0.2 21.2 0 3.6 0.1 7.2 0.1 5.2 0.1 10.4 0 1.5 0.1 3.2c0 10-2.4 19-9.5 26.3-7.2 6-16.8 7.2-25.9 6.4-8.4-1.2-14.4-4-19.8-10.8-4-5.9-5.4-12.9-5.4-20q0-1.4 0-2.9 0-1.6 0-3.2 0-1.6 0-3.3 0-5.1 0-10.3 0-3.5 0.1-7 0-8.6 0-17.2z"/>
	<path fill-rule="evenodd" class="s1" d="m2599 634c7.6 0 15.2 0 23 0 4.5 11.3 4.5 11.3 6.1 16.4q0.5 1.7 1.1 3.4 0.5 1.8 1.1 3.7 0.6 1.9 1.2 3.8 1.2 4 2.4 8 1.6 5 3.2 10.1 1.5 4.9 3 9.8 0.6 1.8 1.1 3.6 0.6 1.7 1.1 3.5 0.5 1.4 0.9 3c0.7 2.5 1.3 5.1 1.8 7.7-6.3 0-12.5 0-19 0-0.8-2.4-1.7-4.8-2.5-7.3q-0.4-1.1-0.8-2.3c-1-2.9-1.7-5.3-1.7-8.4-6.9 0-13.9 0-21 0-0.3 2.6-0.7 5.3-1 8-0.9 3.4-1.9 6.7-3 10-5.9 0-11.9 0-18 0 0.7-5 1.5-9.1 2.9-13.9q0.3-0.9 0.6-1.9 1-3.2 2-6.3 0.6-2.2 1.3-4.4 1.8-5.8 3.5-11.6 1.8-5.9 3.6-11.8 3.6-11.5 7.1-23.1zm11 15q-1.5 5.4-3 10.8-0.4 1.5-0.9 3-0.4 1.5-0.8 3-0.4 1.3-0.7 2.7c-0.7 2.7-0.7 2.7-0.6 6.5 4.6 0 9.2 0 14 0-2.3-8.6-4.6-17.2-7-26q-0.5 0-1 0z"/>
	<path class="s1" d="m1940 741c15.2 0 30.4 0 46 0 0 5 0 9.9 0 15-9.2 0-18.5 0-28 0 0 4.6 0 9.2 0 14 8.9 0 17.8 0 27 0 0 4.6 0 9.2 0 14-8.9 0-17.8 0-27 0 0 5.3 0 10.6 0 16 9.9 0 19.8 0 30 0 0 5 0 9.9 0 15-15.8 0-31.7 0-48 0 0-24.4 0-48.8 0-74z"/>
	<path class="s1" d="m2420 741c15.2 0 30.4 0 46 0 0 5 0 9.9 0 15-9.6 0-19.1 0-29 0 0 4.6 0 9.2 0 14 8.9 0 17.8 0 27 0 0 4.6 0 9.2 0 14-8.9 0-17.8 0-27 0 0 5.3 0 10.6 0 16 9.9 0 19.8 0 30 0 0 5 0 9.9 0 15-15.5 0-31 0-47 0 0-24.4 0-48.8 0-74z"/>
	<path class="s1" d="m2073 741c15.2 0 30.4 0 46 0 0 5 0 9.9 0 15-9.6 0-19.1 0-29 0 0 4.6 0 9.2 0 14 8.9 0 17.8 0 27 0 0 4.6 0 9.2 0 14-8.9 0-17.8 0-27 0 0 5.3 0 10.6 0 16 9.9 0 19.8 0 30 0 0 5 0 9.9 0 15-15.5 0-31 0-47 0 0-24.4 0-48.8 0-74z"/>
	<path class="s1" d="m2765 634c15.2 0 30.4 0 46 0 0 4.6 0 9.2 0 14-9.6 0-19.1 0-29 0 0 4.6 0 9.2 0 14 8.9 0 17.8 0 27 0 0 5 0 9.9 0 15-8.9 0-17.8 0-27 0 0 5.3 0 10.6 0 16 9.9 0 19.8 0 30 0 0 4.6 0 9.2 0 14-15.5 0-31 0-47 0 0-24.1 0-48.2 0-73z"/>
	<path class="s1" d="m2207 634c14.8 0 29.7 0 45 0 0 4.6 0 9.2 0 14-9.2 0-18.5 0-28 0 0 4.6 0 9.2 0 14 8.9 0 17.8 0 27 0 0 5 0 9.9 0 15-8.9 0-17.8 0-27 0 0 5.3 0 10.6 0 16 9.9 0 19.8 0 30 0 0 4.6 0 9.2 0 14-15.5 0-31 0-47 0 0-24.1 0-48.2 0-73z"/>
	<path class="s1" d="m2114 634c6.3 0 12.5 0 19 0 5.6 17.2 10.3 34.6 15 52q0.3-1 0.5-2c4.4-16.8 9.3-33.4 14.5-50 6.3 0 12.5 0 19 0-2 7.6-4.3 15.1-6.9 22.6q-0.5 1.6-1.1 3.2-1.7 5.1-3.4 10.1-1.8 5.1-3.5 10.1-1.1 3.2-2.1 6.3-3.6 10.3-7 20.7c-6.9 0-13.9 0-21 0-5.9-17.6-11.8-35.2-17.5-52.8q-0.7-2.3-1.5-4.5-1-3.1-2-6.2-0.6-1.8-1.2-3.6c-0.8-2.9-0.8-2.9-0.8-5.9z"/>
	<path class="s1" d="m2810 743c-0.6 5.2-1.4 10-3 15q-1.4-0.3-2.8-0.7c-10.8-2.9-10.8-2.9-21.3-0.1-1.1 1.8-1.1 1.8-1.1 4.2 2.7 5.9 9.6 7.8 15.3 10.1 7.1 2.9 12 6 15.2 13.1 1.8 6.2 1.7 12.9-0.9 18.8-3.6 6.1-8.9 9.2-15.4 11.6-10.3 2.6-21 1.5-31-2q-1.5-0.5-3-1 0.6-3.5 1.3-6.9 0.4-2 0.8-3.9 0.4-1.6 0.9-3.2c3.7-1.2 5.2-0.2 8.8 1.2 7 2.5 13.2 1.8 20.2-0.2 0.9-3 1.1-4.6 0.1-7.6-3.1-3.5-6.8-4.7-11.1-6.4-7.8-3.6-15.1-6.9-19-15-2.3-6.4-1-12.6 1.6-18.6 3.2-5.5 8.2-8.2 14-10.3 10.3-2.6 20.4-1.5 30.4 1.9z"/>
	<path class="s1" d="m2391.2 632.8q1.4-0.1 2.8-0.1c6 0 10.5 0.8 16 3.3q-0.7 2.9-1.4 5.9-0.4 1.6-0.8 3.3c-0.8 2.8-0.8 2.8-1.8 4.8q-1.9-0.5-3.8-1c-5.9-1.3-12.7-2.3-18.5-0.1-1.9 1-1.9 1-2.7 3.5-0.3 2.7-0.3 2.7 1.4 4.5 4.2 3.4 9 5 14 7 7.2 3 11.8 7.1 15.6 14.1 1.2 6.9 1.2 14-2.4 20.1-6 7.4-13.2 9.5-22.4 10.6-8.7 0.7-17.7 0-25.2-4.7 0.6-5.2 1.4-10 3-15 1.2 0.4 1.2 0.4 2.5 0.9 8 2.6 15.4 5.1 23.6 1.9 2-1.7 2-1.7 3-4.2 0.2-2.8 0.2-2.8-2.1-5-3.5-3-6.7-4.4-10.9-6-7.2-3-12.6-5.7-17-12.5-2.4-6.7-2.6-12.5-0.1-19.1 6.1-10.2 16.2-12.2 27.2-12.2z"/>
	<path class="s1" d="m229 761c4.6 0 9.2 0 14 0 2.1 4.7 3.8 9.3 5.3 14.2q0.3 1 0.6 2 0.9 3.1 1.8 6.2 0.6 2.2 1.2 4.3 1.6 5.1 3.1 10.3c2.9-7.6 5.5-15.3 8.2-23q0.7-2 1.4-4.1 1.7-4.9 3.4-9.9c5 0 9.9 0 15 0q0.6 10.7 1.3 21.5 0.2 3.6 0.4 7.3 0.3 5.2 0.6 10.5 0.1 1.6 0.2 3.2c0.3 4.9 0.6 9.7 0.5 14.5-3.6 0-7.3 0-11 0-1.1-5.6-1.3-11.1-1.5-16.8-0.3-7.1-0.7-14.1-1.5-21.2q-0.5 1.6-1.1 3.3-2 6-4 12-0.8 2.6-1.7 5.2-1.2 3.7-2.5 7.4-0.4 1.2-0.8 2.4c-1.8 5.5-1.8 5.5-2.9 7.7-3 0-5.9 0-9 0q-1.9-5.8-3.7-11.7-0.6-1.6-1.1-3.3-0.5-1.6-1.1-3.3-0.4-1.4-0.9-2.9c-1.8-5.6-3.5-11.2-5.2-16.8-0.7 12.5-1.3 25.1-2 38-3.6 0-7.3 0-11 0 0.5-12.4 1.1-24.8 1.9-37.2q0.2-3 0.4-5.9 0.1-1.9 0.2-3.8 0.1-1.6 0.2-3.3c0.3-2.8 0.3-2.8 1.3-6.8z"/>
	<path class="s1" d="m1887 741c14.8 0 29.7 0 45 0 0 5 0 9.9 0 15-9.2 0-18.5 0-28 0 0 5 0 9.9 0 15 8.6 0 17.2 0 26 0 0 5 0 9.9 0 15-8.6 0-17.2 0-26 0 0 9.6 0 19.1 0 29-5.6 0-11.2 0-17 0 0-24.4 0-48.8 0-74z"/>
	<path class="s1" d="m2265 741c5.6 0 11.2 0 17 0 0 19.5 0 38.9 0 59 9.6 0 19.1 0 29 0 0 5 0 9.9 0 15-15.2 0-30.4 0-46 0 0-24.4 0-48.8 0-74z"/>
	<path class="s1" d="m22 761c4 0 7.9 0 12 0 2.7 2.8 4.2 4.8 6 8.1 1.2 2.3 2.6 4.7 4 7 4.2 7.2 8.3 14.4 12 21.9 0.3-12.2 0.7-24.4 1-37 3.3 0 6.6 0 10 0 0 18.8 0 37.6 0 57-12 0-12 0-14.6-2.1q-0.8-1.4-1.6-2.9-0.9-1.6-1.8-3.3-0.9-1.6-1.8-3.4-0.9-1.6-1.8-3.3c-1.9-3.3-3.6-6.6-5.4-10-2.3-4.3-4.6-8.6-7-13-0.3 12.5-0.7 25.1-1 38-3.3 0-6.6 0-10 0 0-18.8 0-37.6 0-57z"/>
	<path class="s1" d="m28 662c13 0 13 0 16.1 2.9 1.1 2 1.1 2 2.1 4.1 0.6 1.1 0.6 1.1 1.2 2.2q1.3 2.2 2.4 4.5c1.6 3 3.3 6 5 9 2.5 4.3 4.9 8.8 7.2 13.3 0.3-11.9 0.7-23.8 1-36 3.3 0 6.6 0 10 0 0 18.8 0 37.6 0 57-3.6 0-7.3 0-11 0-2.7-3.1-4.2-5.4-6-9q-1.9-3.2-3.8-6.4-1.5-2.6-3-5.2-1.5-2.6-3-5.2c-2.5-4.4-5-8.7-7.2-13.2-0.3 12.9-0.7 25.7-1 39-3.3 0-6.6 0-10 0 0-18.8 0-37.6 0-57z"/>
	<path fill-rule="evenodd" class="s1" d="m450.6 667.3c7.5 8.3 8.1 17 7.6 27.7-0.6 6.7-3.8 12.2-8.2 17-2.8 1.8-2.8 1.8-5.9 3.3q-1.6 0.7-3.1 1.5c-4.5 1.8-8.6 2.3-13.5 2.3q-1.5 0-3.1 0-1.5 0-3.2 0-1.5 0-3.2 0-1.5 0-3 0-1.4 0-2.9 0c-2.1-0.1-2.1-0.1-3.1-1.1q-0.1-2.6-0.1-5.3 0-1.6 0-3.4 0-1.8 0-3.6 0-1.9 0-3.8 0-5 0-9.9 0-5.1 0.1-10.1 0-10 0-19.9c13.5-2 30-3.4 41.6 5.3zm-29.6 2.7c0 13.2 0 26.4 0 40 10.6 0.3 10.6 0.3 19.5-4.4 5.5-6.2 6-12.1 5.9-20.1-0.6-4.9-1.8-8.1-5.4-11.5-6.5-4.6-11.8-4-20-4z"/>
	<path fill-rule="evenodd" class="s1" d="m370.6 662.5c5.7 3.6 10.9 9.4 13 15.9 1.9 11.2 1.3 21.9-4.9 31.6-4.5 6.1-10.8 8.7-18.1 9.9-7.7 0.5-14.7-0.9-20.6-5.9-6.5-6.2-9-12.1-9.4-21.1-0.2-9.4 1.4-16.2 6.5-24.2 8.8-8.2 22.1-11.1 33.5-6.2zm-24.3 13.1c-4 5.2-4.6 11.1-4.2 17.5 0.9 6.3 2.9 11 7.6 15.4 4.3 1.9 7.7 2.2 12.3 1.5 5.1-1.9 6.7-5.3 9-10 2.2-6.6 2.3-15.3-0.8-21.6-2.4-4-4.7-6.9-9.2-8.4-6.9-0.5-9.8 0.9-14.7 5.6z"/>
	<path fill-rule="evenodd" class="s1" d="m160.5 764.7c6.7 5.8 10 11.9 10.8 20.9 0.1 9.9-1.1 17.4-6.4 25.8-7 6.4-13.7 8.3-23.1 8.1-8-0.4-12.2-2.6-17.6-8.3-5.4-6.1-6.7-13.2-6.6-21.1q0-1.2 0-2.4c0.2-6 1-10.7 4.4-15.7q0.6-1 1.3-1.9c4.3-5.7 9.8-8.2 16.6-9.7 7.1-0.9 14.7 0.1 20.6 4.3zm-27.7 11c-4.1 7-4.7 14.9-2.7 22.7 1.9 5.5 5.1 8.4 9.9 11.6 5.3 0.4 8.7 0.5 13-3 5.9-6.4 6.5-12.1 6.3-20.5-0.5-6.1-2.7-10.2-7-14.5-6.9-4.2-14.5-3.1-19.5 3.7z"/>
	<path fill-rule="evenodd" class="s1" d="m193.3 760.8q1.2-0.1 2.4-0.1c6.9-0.1 13.7 0.7 18.7 5.7 3.5 5.8 4.2 10 2.6 16.6-1.9 3.5-4 6.3-7 9q0.9 0.9 1.8 1.8c3 4.4 4.1 8.9 5.4 14q0.5 1.5 0.9 3 0.9 3.6 1.9 7.2c-4 0-7.9 0-12 0-2-5.2-3.7-10.4-5.2-15.8-0.8-2.6-0.8-2.6-3.8-5.2-3-0.7-5.9-1.3-9-2 0 7.6 0 15.2 0 23-3.6 0-7.3 0-11 0 0-18.5 0-37 0-56 4.9-1 9.3-1.2 14.2-1.2zm-3.2 9.2c0 5.6 0 11.2 0 17 7.5 0.4 7.5 0.4 14-3 2.4-2 2.4-2 2.4-5.9-0.1-3.1-0.3-4-2.2-6.6-4.8-2.3-8.9-1.8-14.2-1.5z"/>
	<path fill-rule="evenodd" class="s1" d="m470 761c4.6 0 9.2 0 14 0q3.6 10.8 7.2 21.6 0.4 1.2 0.8 2.4 0.8 2.4 1.6 4.8 2 6.1 4.1 12.3 0.5 1.2 0.9 2.5 0.8 2.4 1.6 4.7c1 3 1.8 5.5 1.8 8.7-4 0-7.9 0-12 0-1.6-4.6-3.3-9.2-5-14-5.6-0.3-11.2-0.7-17-1q-0.7 2.9-1.4 5.8c-0.8 3.1-1.6 6.2-2.6 9.2-4 0-7.9 0-12 0 2.4-10.6 5.8-20.8 9.2-31.2q1.4-4.4 2.9-8.9 0.9-2.9 1.8-5.7 0.5-1.4 0.9-2.7 0.4-1.3 0.8-2.5c0.4-1.1 0.4-1.1 0.8-2.2 0.6-1.8 0.6-1.8 1.6-3.8zm6 12c-3 10.4-3 10.4-6 21 4.3 0 8.6 0 13 0-1.9-7-3.9-14-6-21q-0.5 0-1 0z"/>
	<path fill-rule="evenodd" class="s1" d="m312.2 760.9c1.9 0 1.9 0 3.9 0q1.9 0.1 3.9 0.1 1.5 0 3 0 3.5 10.7 7 21.4 1.7 5 3.3 10 1.9 5.7 3.8 11.4 0.6 1.8 1.2 3.6c0.5 1.6 0.5 1.6 1 3.3q0.5 1.5 1 3c0.7 2.3 0.7 2.3 0.7 4.3-4 0-7.9 0-12 0-2.1-5.1-3.9-9.6-5-15-8.4 0.5-8.4 0.5-17 1-0.6 2.1-1.3 4.2-1.9 6.4-2 6.5-2 6.5-3.1 7.6q-2.8 0.1-5.6 0.1-1.5-0.1-3-0.1-1.2 0-2.4 0c1.3-7.2 3.1-14.1 5.4-21q0.5-1.5 1-3 1.1-3.2 2.1-6.4 1.6-4.8 3.2-9.6 1-3.1 2-6.2 0.5-1.4 1-2.9 0.4-1.4 0.8-2.7 0.4-1.2 0.8-2.4c1.2-3.1 1.4-2.8 4.9-2.9zm2.8 12.1q-1.5 4.7-3 9.4c-0.4 1.3-0.4 1.3-0.9 2.7q-0.4 1.2-0.8 2.5-0.4 1.2-0.7 2.4c-0.7 2-0.7 2-0.6 4 4.3 0 8.6 0 13 0-2-6.9-4-13.9-6-21q-0.5 0-1 0z"/>
	<path class="s1" d="m237 662c3.6 0 7.3 0 11 0q0 1.7 0 3.5 0.1 6.4 0.3 12.8 0 2.8 0 5.6 0.1 4 0.2 8 0 1.2 0 2.5c0.1 4.9 0.8 8.4 3.5 12.6 3.7 2.4 6.7 2.8 11 2 3.2-2.5 4.7-4.1 6-8q0.2-4.4 0.3-8.8 0-1.3 0.1-2.6 0.1-4.2 0.2-8.3 0-2.8 0.1-5.6 0.2-6.8 0.3-13.7c3.6 0 7.3 0 11 0q0.1 8.5 0.2 17.1 0 2.9 0 5.8 0.1 4.2 0.1 8.3 0 1.3 0 2.6c0 6.6-1 12-4.9 17.4-5.8 5.3-11.6 6.6-19.4 6.8-5.8-0.4-10.6-2-15-6-7.3-9-5.6-20.8-5.3-31.6q0-3 0.1-6 0-7.2 0.2-14.4z"/>
	<path class="s1" d="m2071 634c5.9 0 11.9 0 18 0 0 24.1 0 48.2 0 73-5.9 0-11.9 0-18 0 0-24.1 0-48.2 0-73z"/>
	<path class="s1" d="m466 662c11.2 0 22.4 0 34 0 0 3 0 5.9 0 9-7.6 0-15.2 0-23 0 0 4.3 0 8.6 0 13 7.3 0 14.5 0 22 0 0 3.3 0 6.6 0 10-7.3 0-14.5 0-22 0 0 5 0 9.9 0 15 7.9 0 15.8 0 24 0 0 3.3 0 6.6 0 10-11.5 0-23.1 0-35 0 0-18.8 0-37.6 0-57z"/>
	<path class="s1" d="m2664 741c5.6 0 11.2 0 17 0 0 24.4 0 48.8 0 74-5.6 0-11.2 0-17 0 0-24.4 0-48.8 0-74z"/>
	<path class="s1" d="m2441 634c5.6 0 11.2 0 17 0 0 24.1 0 48.2 0 73-5.6 0-11.2 0-17 0 0-24.1 0-48.2 0-73z"/>
	<path class="s1" d="m103.5 660.8q1.1-0.1 2.3-0.1c4.2 0 7.4 0.4 11.2 2.3q-0.4 2.2-0.9 4.4-0.2 1.3-0.5 2.5-0.3 1.1-0.6 2.1-1 0.5-2 1-1.3-0.5-2.6-0.9c-4.8-1.5-9.2-2.1-13.9 0.1-1.6 1.7-1.6 1.7-2.2 4.2 1 3.7 3 4.5 6.3 6.4 2.5 1.2 5 2.4 7.6 3.6 5.1 2.5 8.2 5.4 10.8 10.6 0.8 6.8 0.2 11.5-4 17-5.7 4.4-10.2 5.2-17.3 5.3q-1.1 0-2.2 0c-5.2 0-8.8-0.9-13.5-3.3 0.8-7.7 0.8-7.7 3-10q1.7 0.7 3.4 1.5c5.9 2.2 11.6 2.2 17.6 0.5 0.9-4 0.9-4 0.5-8-2.4-3.2-5.7-4.3-9.3-5.9-5.8-2.6-11.2-5.1-14.2-11.1-0.7-5.1-1.1-9.9 1.4-14.5 5.6-6.6 10.7-7.8 19.1-7.7z"/>
	<path class="s1" d="m448 763c-0.3 2.6-0.7 5.3-1 8-3 0.9-3.9 1-7 0-6.9-0.7-12.3 0-18 4-3.9 3.7-5.4 7.8-6 13 0 5.6 0.9 10.3 4 15 4.5 4.4 8.7 5.9 14.9 6.2 3.8-0.1 7.4-0.6 11.1-1.2 0.7 3 1.3 5.9 2 9-8.5 3.4-20.7 3.9-29.3 0.3-1.9-1.1-1.9-1.1-3.7-2.3q-0.8-0.5-1.7-1.1c-5.2-3.7-7.4-9.1-9.3-14.9-1.2-18.4-1.2-18.4 4-26q0.7-1 1.3-1.9c5.4-7 12.3-9.5 20.8-10.9 6.2-0.5 12.4-0.3 17.9 2.8z"/>
	<path class="s1" d="m78 761c10.9 0 21.8 0 33 0 0 3.3 0 6.6 0 10-7.3 0-14.5 0-22 0 0 4.6 0 9.2 0 14 6.9 0 13.9 0 21 0 0 3.3 0 6.6 0 10-6.9 0-13.9 0-21 0 0 7.6 0 15.2 0 23-3.6 0-7.3 0-11 0 0-18.8 0-37.6 0-57z"/>
	<path class="s1" d="m336 761c14.2 0 28.4 0 43 0 0 3.3 0 6.6 0 10-5.3 0-10.6 0-16 0 0 15.5 0 31 0 47-3.6 0-7.3 0-11 0 0-15.5 0-31 0-47-5.3 0-10.6 0-16 0 0-3.3 0-6.6 0-10z"/>
	<path class="s1" d="m287 662c14.2 0 28.4 0 43 0 0 3 0 5.9 0 9-5.3 0-10.6 0-16 0 0 15.8 0 31.7 0 48-3.6 0-7.3 0-11 0 0-15.8 0-31.7 0-48-5.3 0-10.6 0-16 0 0-3 0-5.9 0-9z"/>
	<path class="s1" d="m188 662c14.2 0 28.4 0 43 0 0 3 0 5.9 0 9-5.3 0-10.6 0-16 0 0 15.8 0 31.7 0 48-3.6 0-7.3 0-11 0 0-15.8 0-31.7 0-48-5.3 0-10.6 0-16 0 0-3 0-5.9 0-9z"/>
	<path class="s1" d="m122 662c14.2 0 28.4 0 43 0 0 3 0 5.9 0 9-5.3 0-10.6 0-16 0 0 15.8 0 31.7 0 48-3.6 0-7.3 0-11 0 0-15.8 0-31.7 0-48-5.3 0-10.6 0-16 0 0-3 0-5.9 0-9z"/>
	<path class="s1" d="m385 761c3.6 0 7.3 0 11 0 0 18.8 0 37.6 0 57-3.6 0-7.3 0-11 0 0-18.8 0-37.6 0-57z"/>
	<path class="s1" d="m0 761c3.6 0 7.3 0 11 0 0 18.8 0 37.6 0 57-3.6 0-7.3 0-11 0 0-18.8 0-37.6 0-57z"/>
	<path class="s1" d="m171 662c3.6 0 7.3 0 11 0 0 18.8 0 37.6 0 57-3.6 0-7.3 0-11 0 0-18.8 0-37.6 0-57z"/>
	<path class="s1" d="m6 662c3.6 0 7.3 0 11 0 0 18.8 0 37.6 0 57-3.6 0-7.3 0-11 0 0-18.8 0-37.6 0-57z"/>
	<path class="s1" d="m2724 724c2-0.3 2-0.3 4.4-0.3q1.2 0 2.5 0 1.4 0.1 2.7 0.1c1.4 0 1.4 0 2.7 0.1q3.4 0 6.7 0.1-0.6 0.7-1.2 1.4c-3.3 3.8-3.3 3.8-6.4 7.8-1.7 2.2-3 3.4-5.4 4.8-5.1 0.6-9.9 0.4-15 0q1.7-2.7 3.4-5.3 0.9-1.5 1.9-3 1.8-2.9 3.7-5.7z"/>
	<path class="s1" d="m320.1 747.6q1.8 0.1 3.6 0.1c1.8 0.1 1.8 0.1 3.6 0.2 1.3 0 1.3 0 2.7 0.1q0 1 0 2c-1.7 1.7-1.7 1.7-3.9 3.5-2.1 1.8-4.1 3.5-6.1 5.5-2.4 0.2-2.4 0.2-5.1 0.1-1.4 0-1.4 0-2.8 0q-1-0.1-2.1-0.1c2.8-5.1 2.8-5.1 4-7 0.6-1.1 0.6-1.1 1.2-2.2 1.8-1.8 1.8-1.8 4.9-2.2z"/>
</svg>